<svg width="30" height="29" viewBox="0 0 30 29" fill="none" xmlns="http://www.w3.org/2000/svg">
<path d="M10.9995 22.0312L11.0317 21H10H4C2.34315 21 1 19.6569 1 18V4C1 2.34315 2.34315 1 4 1H26C27.6569 1 29 2.34315 29 4V18C29 19.6569 27.6569 21 26 21H19.5H19.1423L18.8657 21.2269L10.8183 27.8299L10.9995 22.0312Z" stroke="white" stroke-width="2"/>
<path d="M21 17L16.1482 5H13.8518L9 17H11.5391L12.5741 14.3277H17.3612L18.3962 17H21ZM16.4717 12.0128H13.4636L14.9677 8.14894L16.4717 12.0128Z" fill="white"/>
</svg>
