<svg width="8" height="14" viewBox="0 0 8 14" fill="none" xmlns="http://www.w3.org/2000/svg">
<path d="M7.7657 7.66369C7.74339 7.69123 7.71948 7.71789 7.69398 7.74356L1.78361 13.692C1.37559 14.1027 0.714045 14.1027 0.306019 13.692C-0.102007 13.2814 -0.102006 12.6156 0.306019 12.2049L5.47759 7L0.306019 1.7951C-0.102006 1.38445 -0.102007 0.718646 0.306019 0.307991C0.714045 -0.102664 1.37559 -0.102663 1.78361 0.307991L7.69398 6.25644C7.89903 6.46281 8.00103 6.73361 7.99999 7.00408C7.99961 7.10364 7.98527 7.20315 7.95697 7.29939C7.91871 7.42946 7.85496 7.55355 7.7657 7.66369Z" fill="#1A4789"/>
</svg>