<svg width="28" height="25" viewBox="0 0 28 25" fill="none" xmlns="http://www.w3.org/2000/svg">
<path d="M7.65179 0.0067466C9.53418 -0.0491056 11.1701 0.857599 12.5334 2.35135C12.9394 2.79698 13.3585 3.22954 13.8038 3.63714C13.9931 3.81064 14.1229 3.78806 14.2919 3.62169C14.6587 3.26519 15.0158 2.89205 15.354 2.50584C16.3958 1.31749 17.6162 0.400092 19.214 0.12915C21.8251 -0.311726 24.0956 0.366814 25.9304 2.30857C27.4318 3.90095 28.064 5.8332 27.9949 7.9948C27.9604 9.12492 27.5842 10.1802 27.1008 11.1938C26.1352 13.214 24.8159 14.9965 23.3515 16.678C20.8348 19.562 18.0133 22.1661 14.9361 24.4451C14.6515 24.6566 14.3586 24.9751 14.0502 24.9988C13.7419 25.0226 13.4406 24.678 13.1585 24.4665C9.28534 21.5823 5.77654 18.3132 2.89521 14.4285C1.90935 13.1288 1.10543 11.7012 0.50562 10.1849C-0.234952 8.26456 -0.145658 6.37033 0.666353 4.51414C1.54266 2.51059 3.00356 1.09408 5.09788 0.371569C5.92038 0.0981131 6.78546 -0.0254623 7.65179 0.0067466Z" fill="#EC0086"/>
</svg>
