<svg width="14" height="14" viewBox="0 0 14 14" fill="none" xmlns="http://www.w3.org/2000/svg">
<path fill-rule="evenodd" clip-rule="evenodd" d="M6.11959e-07 7C9.49935e-07 3.13401 3.13401 -9.49935e-07 7 -6.11959e-07C10.866 -2.73984e-07 14 3.13401 14 7C14 10.866 10.866 14 7 14C3.13401 14 2.73984e-07 10.866 6.11959e-07 7ZM8.00001 10C8.00001 10.5523 7.5523 11 7.00001 11C6.44773 11 6.00001 10.5523 6.00001 10L6.00001 7C6.00001 6.44771 6.44773 6 7.00001 6C7.5523 6 8.00001 6.44771 8.00001 7L8.00001 10ZM7.00001 5C7.5523 5 8.00001 4.55228 8.00001 4C8.00001 3.44771 7.5523 3 7.00001 3C6.44773 3 6.00001 3.44771 6.00001 4C6.00001 4.55228 6.44773 5 7.00001 5Z" fill="#737373"/>
</svg>