<svg width="30" height="29" viewBox="0 0 30 29" fill="none" xmlns="http://www.w3.org/2000/svg">
<path d="M19.0005 22.0312L18.9683 21H20H26C27.6569 21 29 19.6569 29 18V4C29 2.34315 27.6569 1 26 1H4C2.34315 1 1 2.34315 1 4V18C1 19.6569 2.34315 21 4 21H10.5H10.8577L11.1343 21.2269L19.1817 27.8299L19.0005 22.0312Z" stroke="white" stroke-width="2"/>
<path d="M21 15.2156L19.8541 14.2169C20.1724 13.7367 20.4164 13.2183 20.5862 12.6617C20.756 12.105 20.8408 11.5266 20.8408 10.9263V10.8936C20.8408 10.075 20.6923 9.31105 20.3952 8.60164C20.1088 7.88131 19.7003 7.25921 19.1698 6.73533C18.6499 6.20055 18.0292 5.78035 17.3077 5.47476C16.5862 5.15825 15.7958 5 14.9363 5C14.0769 5 13.2812 5.15825 12.5491 5.47476C11.8276 5.78035 11.2016 6.206 10.6711 6.75171C10.1512 7.28649 9.74271 7.91405 9.44562 8.63438C9.14854 9.34379 9 10.1078 9 10.9263V10.9591C9 11.7776 9.14324 12.5471 9.42971 13.2674C9.72679 13.9768 10.1353 14.5989 10.6552 15.1337C11.1857 15.6576 11.8117 16.0778 12.5332 16.3943C13.2546 16.6999 14.0451 16.8527 14.9045 16.8527C15.5305 16.8527 16.1194 16.7708 16.6711 16.6071C17.2228 16.4325 17.7374 16.1869 18.2149 15.8704L19.4403 17L21 15.2156ZM18.2785 10.9591C18.2785 11.5484 18.1777 12.0723 17.9761 12.5307L16.1459 10.8281L14.5862 12.6289L16.4005 14.2169C15.9443 14.4243 15.4562 14.528 14.9363 14.528C14.4377 14.528 13.9814 14.4352 13.5676 14.2497C13.1645 14.0532 12.809 13.7913 12.5013 13.4638C12.2042 13.1364 11.9708 12.7544 11.8011 12.3179C11.6419 11.8813 11.5623 11.4175 11.5623 10.9263V10.8936C11.5623 10.4025 11.6419 9.94407 11.8011 9.51842C11.9708 9.08186 12.1989 8.69986 12.4854 8.37244C12.7825 8.04502 13.1326 7.78854 13.5358 7.603C13.9496 7.41746 14.4058 7.32469 14.9045 7.32469C15.3926 7.32469 15.8435 7.42292 16.2573 7.61937C16.6711 7.80491 17.0265 8.06139 17.3236 8.38881C17.6313 8.71623 17.8647 9.09823 18.0239 9.53479C18.1936 9.97135 18.2785 10.4352 18.2785 10.9263V10.9591Z" fill="white"/>
</svg>
